<svg xmlns="http://www.w3.org/2000/svg" viewBox="-7.25 -7.25 264.96 72.50" width="265" height="73" fill="none">
<g transform="scale(0.60417)">
<path d="M24 12V60" stroke="#E6EDF3" stroke-width="9" stroke-linecap="round"/>
<path d="M72 36A36 36 0 0 1 36 72" stroke="#E6EDF3" stroke-width="9" stroke-linecap="round"/>
<circle cx="72" cy="24" r="12" fill="#3FB950"/>
<circle cx="24" cy="72" r="12" fill="#3FB950"/>
</g>
<g transform="translate(60.754 42.689) scale(0.054000 -0.054000)" fill="#E6EDF3">
<path transform="translate(0.000 0)" d="M49 245V260Q49 338 80.0 393.5Q111 449 163.0 478.5Q215 508 277 508Q347 508 383.5 483.0Q420 458 437 429H454V494H566V-94Q566 -143 538.0 -171.5Q510 -200 462 -200H130V-100H423Q452 -100 452 -70V73H435Q424 56 405.0 38.5Q386 21 355.0 9.0Q324 -3 277 -3Q215 -3 163.0 26.5Q111 56 80.0 111.5Q49 167 49 245ZM309 98Q371 98 412.0 137.5Q453 177 453 248V258Q453 330 412.5 369.0Q372 408 309 408Q247 408 205.5 369.0Q164 330 164 258V248Q164 177 205.5 137.5Q247 98 309 98Z"/>
<path transform="translate(599.000 0)" d="M73 0V494H188V0ZM130 557Q99 557 76.5 577.5Q54 598 54 632Q54 666 76.5 686.5Q99 707 130 707Q163 707 184.5 686.5Q206 666 206 632Q206 598 184.5 577.5Q163 557 130 557Z"/>
<path transform="translate(820.000 0)" d="M261 0Q213 0 184.5 28.5Q156 57 156 106V399H27V494H156V653H271V494H413V399H271V125Q271 95 299 95H398V0Z"/>
<path transform="translate(1237.000 0)" d="M73 0V494H186V439H203Q216 464 246.5 483.5Q277 503 328 503Q382 503 415.0 481.0Q448 459 465 425H481Q498 459 530.0 481.0Q562 503 621 503Q667 503 704.5 483.0Q742 463 764.5 424.0Q787 385 787 327V0H672V319Q672 362 649.0 384.5Q626 407 585 407Q540 407 513.5 377.5Q487 348 487 293V0H373V319Q373 362 350.0 384.5Q327 407 286 407Q240 407 214.0 377.5Q188 348 188 293V0Z"/>
<path transform="translate(2052.000 0)" d="M307 -14Q233 -14 174.5 16.5Q116 47 82.5 103.5Q49 160 49 239V255Q49 334 82.5 391.0Q116 448 174.5 478.0Q233 508 307 508Q381 508 439.0 478.0Q497 448 530.5 391.0Q564 334 564 255V239Q564 160 530.5 103.5Q497 47 439.0 16.5Q381 -14 307 -14ZM307 88Q370 88 410.0 128.5Q450 169 450 242V252Q450 325 410.0 365.5Q370 406 307 406Q244 406 204.0 365.5Q164 325 164 252V242Q164 169 204.0 128.5Q244 88 307 88Z"/>
<path transform="translate(2625.000 0)" d="M277 -14Q181 -14 119.0 28.0Q57 70 44 151L150 178Q157 140 175.0 118.0Q193 96 219.5 87.0Q246 78 277 78Q324 78 347.5 95.0Q371 112 371 138Q371 165 348.5 178.0Q326 191 280 200L249 205Q198 215 156.0 232.5Q114 250 88.5 280.5Q63 311 63 358Q63 430 116.5 469.0Q170 508 257 508Q340 508 394.0 471.0Q448 434 464 372L358 340Q350 382 323.0 399.5Q296 417 257 417Q217 417 195.5 403.0Q174 389 174 363Q174 337 196.0 324.0Q218 311 255 305L286 299Q341 289 385.5 273.0Q430 257 456.0 227.0Q482 197 482 146Q482 69 426.5 27.5Q371 -14 277 -14Z"/>
<path transform="translate(3100.000 0)" d="M261 0Q213 0 184.5 28.5Q156 57 156 106V399H27V494H156V653H271V494H413V399H271V125Q271 95 299 95H398V0Z"/>
</g>
</svg>
